<svg width="215" height="195" viewBox="0 0 215 195" fill="none" xmlns="http://www.w3.org/2000/svg">
<path d="M4.49873 193.209C33.2495 190.334 60.6152 176.566 83.4822 159.519C93.5557 152.01 101.823 144.07 107.418 132.668C111.351 124.654 115.34 115.611 117.508 106.939C119.724 98.0763 118.466 89.2112 119.414 80.1996C120.311 71.6786 116.713 62.105 115.49 53.6849C114.196 44.7704 112.405 35.6285 109.548 27.0582C106.938 19.2272 105.298 10.8158 101.869 3.2342C100.101 -0.672229 97.1202 6.75034 96.3191 8.05505C93.9085 11.9809 92.3188 16.2527 89.7605 20.1632C86.0953 25.7657 83.2981 32.0665 80.6794 38.2134C75.1101 51.2858 71.5982 63.7319 71.5982 78.0134C71.5982 89.9831 71.8866 100.727 76.6433 111.871C79.7043 119.043 82.1601 126.476 87.7425 132.164C93.8502 138.387 99.4174 144.719 106.185 150.326C115.66 158.177 128.446 163.767 139.819 168.376C150.196 172.582 160.975 172.02 171.995 172.02C182.594 172.02 193.275 170.482 203.723 168.741C206.523 168.274 209.227 167.479 212.076 167.479C213.407 167.479 212.486 165.468 212.076 164.705C210.554 161.879 209.148 159.933 207.058 157.389C202.581 151.939 197.561 146.095 192.204 141.525C185.003 135.384 178.444 127.943 170.229 123.111C161.944 118.237 154.047 113.369 144.976 109.994C136.128 106.701 125.864 105.929 116.499 105.929C109.16 105.929 101.195 106.375 94.0488 108.228C77.2436 112.585 61.4728 117.863 46.4009 126.614C40.1349 130.253 33.8663 134.689 27.9864 138.947C25.3285 140.871 23.4605 142.968 21.1475 145.281C19.0727 147.356 18.0755 150.124 16.1024 152.316C9.63712 159.5 3.9927 169.765 3.01324 179.56C2.60216 183.67 1.15103 188.716 2.4807 192.705" stroke="white" stroke-width="3" stroke-linecap="round"/>
</svg>
